# xmcd
#
# Track frame offsets:
#	183
#	14588
#	26785
#	40935
#	54518
#	73413
#	89070
#	100663
#	113273
#	130365
#
# Disc length: 1890 seconds
# Revision: 0
# Processed by: cddbd v1.5.2PL0 Copyright (c) Steve Scherf et al.
# Submitted via: dBpowerAMP V12.0
#
DISCID=8907600a
DTITLE=Texas Tornados - Zone of Our Own
DYEAR=1900
DGENRE=Country
TTITLE0=Is Anybody Goin' To San Antone
TTITLE1=La Mucura
TTITLE2=Bailando
TTITLE3=I'm Not That Kat Anymore
TTITLE4=Oh Holy One
TTITLE5=He Is a Tejano
TTITLE6=El Pantalon Blue Jean
TTITLE7=Just Can't Fake It
TTITLE8=Did I Tell You
TTITLE9=Volver
EXTD=
EXTT0=
EXTT1=
EXTT2=
EXTT3=
EXTT4=
EXTT5=
EXTT6=
EXTT7=
EXTT8=
EXTT9=
PLAYORDER=
